<svg xmlns="http://www.w3.org/2000/svg" viewBox="0 0 800 315"><style>.st0{display:none;} .st1{display:inline;} .st2{fill:#FFFFFF;} .st3{fill:none;stroke:#9882CE;stroke-width:4;stroke-miterlimit:10;} .st4{fill:#FFFFFF;stroke:#404040;stroke-width:4;stroke-linejoin:round;stroke-miterlimit:10;} .st5{fill:#4ED1A1;stroke:#404040;stroke-width:4;stroke-linecap:round;stroke-linejoin:round;stroke-miterlimit:10;} .st6{fill:#B3E3FF;stroke:#404040;stroke-width:4;stroke-miterlimit:10;} .st7{fill:#FFFFFF;stroke:#6693ED;stroke-width:4;stroke-miterlimit:10;} .st8{fill:#FFFFFF;stroke:#404040;stroke-width:4;stroke-miterlimit:10;} .st9{fill:#404040;} .st10{fill:#404040;stroke:#404040;stroke-width:4;stroke-linejoin:round;stroke-miterlimit:10;} .st11{fill:none;stroke:#404040;stroke-width:4;stroke-linecap:round;stroke-linejoin:round;stroke-miterlimit:10;} .st12{fill:#999999;} .st13{fill:#B18BE8;stroke:#404040;stroke-width:4;stroke-linecap:round;stroke-linejoin:round;stroke-miterlimit:10;} .st14{fill:none;stroke:#404040;stroke-width:4;stroke-miterlimit:10;} .st15{fill:#4ED1A1;stroke:#404040;stroke-width:4;stroke-miterlimit:10;} .st16{fill:#B3E3FF;stroke:#404040;stroke-width:4;stroke-linejoin:round;stroke-miterlimit:10;} .st17{fill:#FFFFFF;stroke:#404040;stroke-width:4;stroke-linecap:round;stroke-linejoin:round;stroke-miterlimit:10;} .st18{fill:none;stroke:#CCCCCC;stroke-width:4;stroke-linecap:round;stroke-linejoin:round;stroke-miterlimit:10;} .st19{fill:#FFFFFF;stroke:#CCCCCC;stroke-width:4;stroke-linecap:round;stroke-linejoin:round;stroke-miterlimit:10;} .st20{fill:#59AFE1;stroke:#404040;stroke-width:4;stroke-linejoin:round;stroke-miterlimit:10;} .st21{fill:none;stroke:#CCCCCC;stroke-linecap:round;stroke-linejoin:round;stroke-miterlimit:10;}</style><path class="st12" d="M267.1 11.1h-4.7l-1.1 3h-1.6l4.2-10.6h1.7l4.2 10.6h-1.6l-1.1-3zm-4.2-1.3h3.7l-1.9-4.8-1.8 4.8zm9.7.7c0 1.6 1 2.5 2.2 2.5 1.3 0 1.8-.9 2-1.5l1.2.5c-.3 1-1.4 2.2-3.3 2.2-2.1 0-3.6-1.7-3.6-3.8 0-2.2 1.6-3.8 3.6-3.8 1.9 0 2.9 1.2 3.2 2.3l-1.3.5c0-.6-.6-1.4-1.8-1.4-1.1 0-2.2.8-2.2 2.5zm8.6 0c0 1.6 1 2.5 2.2 2.5 1.3 0 1.8-.9 2-1.5l1.2.5c-.3 1-1.4 2.2-3.3 2.2-2.1 0-3.6-1.7-3.6-3.8 0-2.2 1.6-3.8 3.6-3.8 1.9 0 2.9 1.2 3.2 2.3l-1.3.5c-.2-.7-.7-1.5-1.9-1.5-1 .1-2.1.9-2.1 2.6zm14.1 1.5c-.4 1.3-1.6 2.3-3.2 2.3-1.9 0-3.6-1.4-3.6-3.9 0-2.3 1.6-3.8 3.4-3.8 2.2 0 3.5 1.5 3.5 3.8v.4h-5.4c0 1.3 1 2.2 2.2 2.2 1.2 0 1.8-.6 2-1.5l1.1.5zm-1.4-2.3c0-1-.7-1.8-2-1.8-1.2 0-1.9.9-2 1.8h4zm4.6 2.1c.1.8.7 1.3 1.7 1.3.8 0 1.2-.4 1.2-1 0-.5-.3-.8-.9-.9l-1.2-.3c-1.1-.2-1.8-1-1.8-2 0-1.2 1.2-2.3 2.6-2.3 2 0 2.6 1.3 2.7 1.9l-1.2.5c-.1-.4-.4-1.2-1.5-1.2-.7 0-1.2.5-1.2 1 0 .4.3.8.8.9l1.2.3c1.3.3 2 1.1 2 2.1s-.9 2.2-2.6 2.2c-2 0-2.8-1.3-2.9-2.1l1.1-.4zm7.5 0c.1.8.7 1.3 1.7 1.3.8 0 1.2-.4 1.2-1 0-.5-.3-.8-.9-.9l-1.2-.3c-1.1-.2-1.8-1-1.8-2 0-1.2 1.2-2.3 2.6-2.3 2 0 2.6 1.3 2.7 1.9l-1.2.5c-.1-.4-.4-1.2-1.5-1.2-.7 0-1.2.5-1.2 1 0 .4.3.8.8.9l1.2.3c1.3.3 2 1.1 2 2.1s-.9 2.2-2.6 2.2c-2 0-2.8-1.3-2.9-2.1l1.1-.4zm7.7-8.7c.6 0 1 .4 1 1s-.4 1-1 1-1-.5-1-1 .4-1 1-1zm-.7 11v-7.2h1.4v7.2h-1.4zm5.9 0h-1.4v-7.2h1.4v1c.5-.9 1.4-1.2 2.2-1.2 1.7 0 2.6 1.2 2.6 2.8v4.6h-1.4v-4.3c0-1-.4-1.8-1.7-1.8-1.1 0-1.7.9-1.7 2v4.1zm8.6.1c.1 1 .9 1.8 2 1.8 1.5 0 2.2-.8 2.2-2.3v-1c-.3.7-1.1 1.2-2.2 1.2-1.9 0-3.3-1.5-3.3-3.5s1.3-3.5 3.3-3.5c1.1 0 1.9.4 2.2 1.1v-1h1.4v6.7c0 1.8-.9 3.6-3.6 3.6-1.8 0-3.1-1.1-3.3-2.7l1.3-.4zm4.3-3.9c0-1.4-.8-2.3-2.1-2.3-1.2 0-2.1.9-2.1 2.3s.8 2.3 2.1 2.3c1.2 0 2.1-1 2.1-2.3zm9.7.2c0 1.6 1 2.5 2.2 2.5 1.3 0 1.8-.9 2-1.5l1.2.5c-.3 1-1.4 2.2-3.3 2.2-2.1 0-3.6-1.7-3.6-3.8 0-2.2 1.6-3.8 3.6-3.8 1.9 0 2.9 1.2 3.2 2.3l-1.3.5c-.2-.7-.7-1.5-1.9-1.5-1.1.1-2.1.9-2.1 2.6zm14.5 0c0 2.2-1.5 3.8-3.7 3.8s-3.7-1.6-3.7-3.8c0-2.2 1.5-3.8 3.7-3.8s3.7 1.6 3.7 3.8zm-1.4 0c0-1.7-1.1-2.6-2.2-2.6s-2.2.9-2.2 2.6c0 1.7 1 2.6 2.2 2.6s2.2-.9 2.2-2.6zm4 3.6v-7.2h1.3v1c.4-.8 1.4-1.2 2.2-1.2.9 0 1.8.4 2.2 1.4.6-1 1.5-1.4 2.4-1.4 1.3 0 2.5.9 2.5 2.7v4.7h-1.4v-4.5c0-.9-.5-1.6-1.5-1.6s-1.7.8-1.7 1.8v4.4h-1.4v-4.6c0-.9-.4-1.6-1.5-1.6-1 0-1.7.7-1.7 1.8v4.3h-1.4zm13.6 0v-7.2h1.3v1c.4-.8 1.4-1.2 2.2-1.2.9 0 1.8.4 2.2 1.4.6-1 1.5-1.4 2.4-1.4 1.3 0 2.5.9 2.5 2.7v4.7h-1.4v-4.5c0-.9-.5-1.6-1.5-1.6s-1.7.8-1.7 1.8v4.4h-1.4v-4.6c0-.9-.4-1.6-1.5-1.6-1 0-1.7.7-1.7 1.8v4.3h-1.4zm14.3-11c.6 0 1 .4 1 1s-.4 1-1 1-1-.5-1-1 .4-1 1-1zm-.7 11v-7.2h1.4v7.2h-1.4zm6.4-7.2h1.6v1.3h-1.6v3.8c0 .7.3 1 1 1 .2 0 .4 0 .6-.1v1.1c-.1 0-.5.1-1 .1-1.2 0-2-.8-2-2.1v-4h-1.4v-1.1h.4c.8 0 1.1-.5 1.1-1.1v-1.2h1.3v2.3zm4.9 4.9c.1.8.7 1.3 1.7 1.3.8 0 1.2-.4 1.2-1 0-.5-.3-.8-.9-.9l-1.2-.3c-1.1-.2-1.8-1-1.8-2 0-1.2 1.2-2.3 2.6-2.3 2 0 2.6 1.3 2.7 1.9l-1.2.5c-.1-.4-.4-1.2-1.5-1.2-.7 0-1.2.5-1.2 1 0 .4.3.8.8.9l1.2.3c1.3.3 2 1.1 2 2.1s-.9 2.2-2.6 2.2c-2 0-2.8-1.3-2.9-2.1l1.1-.4zm14 2.5c-1.7 0-2.7-1.3-2.7-2.9v-4.5h1.4v4.3c0 1 .4 1.9 1.6 1.9 1.1 0 1.7-.8 1.7-1.8v-4.4h1.4v5.9c0 .6 0 1.1.1 1.3h-1.4c0-.2-.1-.6-.1-.9-.2.8-1.1 1.1-2 1.1zm7.2-2.5c.1.8.7 1.3 1.7 1.3.8 0 1.2-.4 1.2-1 0-.5-.3-.8-.9-.9l-1.2-.3c-1.1-.2-1.8-1-1.8-2 0-1.2 1.2-2.3 2.6-2.3 2 0 2.6 1.3 2.7 1.9l-1.2.5c-.1-.4-.4-1.2-1.5-1.2-.7 0-1.2.5-1.2 1 0 .4.3.8.8.9l1.2.3c1.3.3 2 1.1 2 2.1s-.9 2.2-2.6 2.2c-2 0-2.8-1.3-2.9-2.1l1.1-.4zm7.7-8.7c.6 0 1 .4 1 1s-.4 1-1 1-1-.5-1-1 .4-1 1-1zm-.7 11v-7.2h1.4v7.2h-1.4zm5.9 0h-1.4v-7.2h1.4v1c.5-.9 1.4-1.2 2.2-1.2 1.7 0 2.6 1.2 2.6 2.8v4.6h-1.4v-4.3c0-1-.4-1.8-1.7-1.8-1.1 0-1.7.9-1.7 2v4.1zm8.6.1c.1 1 .9 1.8 2 1.8 1.5 0 2.2-.8 2.2-2.3v-1c-.3.7-1.1 1.2-2.2 1.2-1.9 0-3.3-1.5-3.3-3.5s1.3-3.5 3.3-3.5c1.1 0 1.9.4 2.2 1.1v-1h1.4v6.7c0 1.8-.9 3.6-3.6 3.6-1.8 0-3.1-1.1-3.3-2.7l1.3-.4zm4.3-3.9c0-1.4-.8-2.3-2.1-2.3-1.2 0-2.1.9-2.1 2.3s.8 2.3 2.1 2.3c1.2 0 2.1-1 2.1-2.3zm12.8-2h-.6c-1.2 0-2 .6-2 2.2v3.6h-1.4v-7.2h1.4v1.3c.5-1.1 1.4-1.4 2.2-1.4h.5v1.5zm8.5 3.7c-.4 1.3-1.6 2.3-3.2 2.3-1.9 0-3.6-1.4-3.6-3.9 0-2.3 1.6-3.8 3.4-3.8 2.2 0 3.5 1.5 3.5 3.8v.4h-5.5c0 1.3 1 2.2 2.2 2.2 1.2 0 1.8-.6 2-1.5l1.2.5zm-1.4-2.3c0-1-.7-1.8-2-1.8-1.2 0-1.9.9-2 1.8h4zm4 4.4v-10.9h1.4v10.9h-1.4zm6.3-4.1l1.9-.3c.4-.1.6-.3.6-.5 0-.7-.5-1.3-1.6-1.3-1 0-1.5.6-1.6 1.5l-1.4-.4c.2-1.4 1.4-2.3 3-2.3 2.2 0 3 1.2 3 2.6v3.6c0 .6.1 1 .1 1.2h-1.4c0-.2-.1-.5-.1-1-.3.5-1 1.2-2.3 1.2-1.5 0-2.4-1-2.4-2.2 0-1.2.9-2 2.2-2.1zm2.5 1v-.3l-2.2.3c-.6.1-1 .4-1 1.1 0 .5.4 1 1.2 1 1.1 0 2-.5 2-2.1zm6.2-4.1h1.6v1.3h-1.6v3.8c0 .7.3 1 1 1 .2 0 .4 0 .6-.1v1.1c-.1 0-.5.1-1 .1-1.2 0-2-.8-2-2.1v-4h-1.4v-1.1h.4c.8 0 1.1-.5 1.1-1.1v-1.2h1.3v2.3zm4.9-3.8c.6 0 1 .4 1 1s-.4 1-1 1-1-.5-1-1 .4-1 1-1zm-.7 11v-7.2h1.4v7.2h-1.4zm7.9 0h-1.4l-2.9-7.2h1.6l2.1 5.6 2.1-5.6h1.5l-3 7.2zm11-2.1c-.4 1.3-1.6 2.3-3.2 2.3-1.9 0-3.6-1.4-3.6-3.9 0-2.3 1.6-3.8 3.4-3.8 2.2 0 3.5 1.5 3.5 3.8v.4h-5.4c0 1.3 1 2.2 2.2 2.2 1.2 0 1.8-.6 2-1.5l1.1.5zm-1.4-2.3c0-1-.7-1.8-2-1.8-1.2 0-1.9.9-2 1.8h4zm12.5-1.4h-.6c-1.2 0-2 .6-2 2.2v3.6h-1.4v-7.2h1.4v1.3c.5-1.1 1.4-1.4 2.2-1.4h.5v1.5zm8.5 3.7c-.4 1.3-1.6 2.3-3.2 2.3-1.9 0-3.6-1.4-3.6-3.9 0-2.3 1.6-3.8 3.4-3.8 2.2 0 3.5 1.5 3.5 3.8v.4h-5.4c0 1.3 1 2.2 2.2 2.2 1.2 0 1.8-.6 2-1.5l1.1.5zm-1.5-2.3c0-1-.7-1.8-2-1.8-1.2 0-1.9.9-2 1.8h4zm5.9-1.5v5.9h-1.5v-5.9h-1.3v-1.3h1.3v-1.2c0-1.6 1.1-2.5 2.4-2.5.5 0 .8.1.8.2v1.3c-.1 0-.3-.1-.6-.1-.5 0-1.1.2-1.1 1.2v1.1h1.7v1.3h-1.7zm4.6 3.6c.1.8.7 1.3 1.7 1.3.8 0 1.2-.4 1.2-1 0-.5-.3-.8-.9-.9l-1.2-.3c-1.1-.2-1.8-1-1.8-2 0-1.2 1.2-2.3 2.6-2.3 2 0 2.6 1.3 2.7 1.9l-1.2.5c-.1-.4-.4-1.2-1.5-1.2-.7 0-1.2.5-1.2 1 0 .4.3.8.8.9l1.2.3c1.3.3 2 1.1 2 2.1s-.9 2.2-2.6 2.2c-2 0-2.8-1.3-2.9-2.1l1.1-.4z"/><path class="st14" d="M324.7 199.4c0 22.6-18.4 41-41 41m41-41c0-22.6 18.4-41 41-41h118.3"/><circle class="st15" cx="409" cy="158.4" r="21"/><circle class="st15" cx="505" cy="158.4" r="21"/><circle class="st15" cx="505" cy="158.4" r="21"/><path class="st6" d="M113.7 240.4h170"/><circle class="st8" cx="134.7" cy="240.4" r="21"/><circle class="st8" cx="230.7" cy="240.4" r="21"/><path class="st14" d="M591.5 199.4c0 22.6 18.4 41 41 41m-41-41c0-22.6-18.4-41-41-41h-24.5"/><path class="st6" d="M266.9 240.4h377.6"/><circle class="st6" cx="408" cy="240.4" r="21"/><circle class="st16" cx="665.5" cy="240.4" r="21"/><circle class="st16" cx="408" cy="240.4" r="21"/><path class="st9" d="M396.9 96.7h-4.7l-1.1 3h-1.6l4.2-10.6h1.7l4.2 10.6h-1.6l-1.1-3zm-4.2-1.4h3.7l-1.8-4.8-1.9 4.8zm13.5-.9l-2-3.9-2.1 3.9h-1.5l2.9-5.3h1.2l2.9 5.3h-1.4zm3.3-1.1v-.4c0-1.7 1.2-3.1 3.4-3.1 2.1 0 3.3 1.4 3.3 3 0 1.3-.7 2.3-1.8 3l-1.9 1.2c-.6.4-1.1.8-1.2 1.4h5v1.4h-6.8c0-1.6.7-2.8 2.3-3.9l1.6-1c.9-.6 1.3-1.3 1.3-2 0-.9-.6-1.7-1.8-1.7-1.3 0-1.9.9-1.9 2v.4l-1.5-.3zm8.7 2.7v-1.2h4.1v1.2h-4.1zm7.9 3.7v-6.9h-2.4v-1c1.3 0 2.3-.8 2.5-1.8h1.3v9.7h-1.4zm-30.5 15h-4.7l-1.1 3h-1.6l4.2-10.6h1.7l4.2 10.6h-1.6l-1.1-3zm-4.2-1.4h3.7l-1.8-4.8-1.9 4.8zm13.5-.9l-2-3.9-2.1 3.9h-1.5l2.9-5.3h1.2l2.9 5.3h-1.4zm3.2-1.1v-.4c0-1.7 1.2-3.1 3.4-3.1 2.1 0 3.3 1.4 3.3 3 0 1.3-.7 2.3-1.8 3l-1.9 1.2c-.6.4-1.1.8-1.2 1.4h5v1.4h-6.9c0-1.6.7-2.8 2.3-3.9l1.6-1c.9-.6 1.3-1.3 1.3-2 0-.9-.6-1.7-1.8-1.7-1.3 0-1.9.9-1.9 2v.4l-1.4-.3zm14 1.1l-2-3.9-2.1 3.9h-1.5l2.9-5.3h1.2l2.9 5.3h-1.4zm5.4 5.3v-6.9h-2.4v-1c1.3 0 2.3-.8 2.5-1.8h1.3v9.7h-1.4zm-22 172.3h-4.7l-1.1 3h-1.6l4.2-10.6h1.7l4.2 10.6h-1.6l-1.1-3zm-4.1-1.3h3.7l-1.8-4.8-1.9 4.8zm8.2.6v-1.2h4.1v1.2h-4.1zm7.9 3.7v-6.9h-2.4v-1c1.3 0 2.3-.8 2.5-1.8h1.3v9.7h-1.4zm-13.3 15h-4.7l-1.1 3h-1.6l4.2-10.6h1.7l4.2 10.6h-1.6l-1.1-3zm-4.2-1.3h3.7l-1.8-4.8-1.9 4.8zm13.5-1l-2-3.9-2.1 3.9h-1.5l2.9-5.3h1.2l2.9 5.3h-1.4zm5.3 5.3v-6.9h-2.4v-1c1.3 0 2.3-.8 2.5-1.8h1.3v9.7h-1.4zm-193.1-21h-4.7l-1.1 3h-1.6l4.2-10.6h1.7l4.2 10.6h-1.6l-1.1-3zm-4.2-1.3h3.7l-1.8-4.8-1.9 4.8zm8.2.6v-1.2h4.1v1.2h-4.1zm6.2-2.7v-.4c0-1.7 1.2-3.1 3.4-3.1 2.1 0 3.3 1.4 3.3 3 0 1.3-.7 2.3-1.8 3l-1.9 1.2c-.6.4-1.1.8-1.2 1.4h5v1.4h-6.8c0-1.6.7-2.8 2.3-3.9l1.6-1.1c.9-.6 1.3-1.3 1.3-2 0-.9-.6-1.7-1.8-1.7-1.3 0-1.9.9-1.9 2v.4l-1.5-.2zm-18.8 21.4h-4.7l-1.1 3h-1.6l4.2-10.6h1.7l4.2 10.6h-1.6l-1.1-3zm-4.2-1.3h3.7l-1.8-4.8-1.9 4.8zm13.5-1l-2-3.9-2.1 3.9h-1.5l2.9-5.3h1.2l2.9 5.3h-1.4zm3.2-1.1v-.4c0-1.7 1.2-3.1 3.4-3.1 2.1 0 3.3 1.4 3.3 3 0 1.3-.7 2.3-1.8 3l-1.9 1.2c-.6.4-1.1.8-1.2 1.4h5v1.4h-6.8c0-1.6.7-2.8 2.3-3.9l1.6-1.1c.9-.6 1.3-1.3 1.3-2 0-.9-.6-1.7-1.8-1.7-1.3 0-1.9.9-1.9 2v.4l-1.5-.2zm8.8 2.7v-1.2h4.1v1.2h-4.1zm6.1-2.7v-.4c0-1.7 1.2-3.1 3.4-3.1 2.1 0 3.3 1.4 3.3 3 0 1.3-.7 2.3-1.8 3l-1.9 1.2c-.6.4-1.1.8-1.2 1.4h5v1.4h-6.8c0-1.6.7-2.8 2.3-3.9l1.6-1.1c.9-.6 1.3-1.3 1.3-2 0-.9-.6-1.7-1.8-1.7-1.3 0-1.9.9-1.9 2v.4l-1.5-.2zm-114.8-14.6h-4.7l-1.1 3h-1.6l4.2-10.6h1.7l4.2 10.6h-1.6l-1.1-3zm-4.2-1.3h3.7l-1.8-4.8-1.9 4.8zm8.2.6v-1.2h4.1v1.2h-4.1zm7.8-2l2.9-2.6h-4.6v-1.3h6.6v1.3l-2.8 2.6c1.4 0 3 1 3 3 0 1.6-1.3 3.1-3.5 3.1s-3.5-1.5-3.6-3.1l1.4-.3c.1 1.3 1 2.1 2.2 2.1 1.3 0 2.1-.8 2.1-1.8 0-1.3-1-1.8-2-1.8-.3 0-.6.1-.9.2l-.8-1.4zm-20.4 20.7h-4.7l-1.1 3h-1.6l4.2-10.6h1.7l4.2 10.6h-1.6l-1.1-3zm-4.2-1.3h3.7l-1.8-4.8-1.9 4.8zm13.5-1l-2-3.9-2.1 3.9h-1.5l2.9-5.3h1.2l2.9 5.3h-1.4zm3.2-1.1v-.4c0-1.7 1.2-3.1 3.4-3.1 2.1 0 3.3 1.4 3.3 3 0 1.3-.7 2.3-1.8 3l-1.9 1.2c-.6.4-1.1.8-1.2 1.4h5v1.4h-6.8c0-1.6.7-2.8 2.3-3.9l1.6-1.1c.9-.6 1.3-1.3 1.3-2 0-.9-.6-1.7-1.8-1.7-1.3 0-1.9.9-1.9 2v.4l-1.5-.2zm8.7 2.7v-1.2h4.1v1.2h-4.1zm7.9-2l2.9-2.6h-4.6v-1.3h6.6v1.3l-2.8 2.6c1.4 0 3 1 3 3 0 1.6-1.3 3.1-3.5 3.1s-3.5-1.5-3.6-3.1l1.4-.3c.1 1.3 1 2.1 2.2 2.1 1.3 0 2.1-.8 2.1-1.8 0-1.3-1-1.8-2-1.8-.3 0-.6.1-.9.2l-.8-1.4zm348.7-191.3h-4.7l-1.1 3h-1.6l4.2-10.6h1.7l4.2 10.6h-1.6l-1.1-3zm-4.2-1.3h3.7l-1.8-4.8-1.9 4.8zm13.5-1l-2-3.9-2.1 3.9h-1.5l2.9-5.3h1.2l2.9 5.3h-1.4zm3.2-1.1v-.4c0-1.7 1.2-3.1 3.4-3.1 2.1 0 3.3 1.4 3.3 3 0 1.3-.7 2.3-1.8 3l-1.9 1.2c-.6.4-1.1.8-1.2 1.4h5v1.4h-6.8c0-1.6.7-2.8 2.3-3.9l1.6-1.1c.9-.6 1.3-1.3 1.3-2 0-.9-.6-1.7-1.8-1.7-1.3 0-1.9.9-1.9 2v.4l-1.5-.2zm156.4 178.4h-4.7l-1.1 3h-1.6l4.2-10.6h1.7l4.2 10.6h-1.5l-1.2-3zm-4.1-1.3h3.7l-1.8-4.8-1.9 4.8z"/></svg>