<svg xmlns="http://www.w3.org/2000/svg" viewBox="0 0 800 458"><style>.st0{display:none;} .st1{display:inline;} .st2{fill:#FFFFFF;} .st3{fill:none;stroke:#9882CE;stroke-width:4;stroke-miterlimit:10;} .st4{fill:#FFFFFF;stroke:#404040;stroke-width:4;stroke-linejoin:round;stroke-miterlimit:10;} .st5{fill:#4ED1A1;stroke:#404040;stroke-width:4;stroke-linecap:round;stroke-linejoin:round;stroke-miterlimit:10;} .st6{fill:#B3E3FF;stroke:#404040;stroke-width:4;stroke-miterlimit:10;} .st7{fill:#FFFFFF;stroke:#6693ED;stroke-width:4;stroke-miterlimit:10;} .st8{fill:#FFFFFF;stroke:#404040;stroke-width:4;stroke-miterlimit:10;} .st9{fill:#404040;} .st10{fill:#404040;stroke:#404040;stroke-width:4;stroke-linejoin:round;stroke-miterlimit:10;} .st11{fill:none;stroke:#404040;stroke-width:4;stroke-linecap:round;stroke-linejoin:round;stroke-miterlimit:10;} .st12{fill:#999999;} .st13{fill:#B18BE8;stroke:#404040;stroke-width:4;stroke-linecap:round;stroke-linejoin:round;stroke-miterlimit:10;} .st14{fill:none;stroke:#404040;stroke-width:4;stroke-miterlimit:10;} .st15{fill:#4ED1A1;stroke:#404040;stroke-width:4;stroke-miterlimit:10;} .st16{fill:#B3E3FF;stroke:#404040;stroke-width:4;stroke-linejoin:round;stroke-miterlimit:10;} .st17{fill:#FFFFFF;stroke:#404040;stroke-width:4;stroke-linecap:round;stroke-linejoin:round;stroke-miterlimit:10;} .st18{fill:none;stroke:#CCCCCC;stroke-width:4;stroke-linecap:round;stroke-linejoin:round;stroke-miterlimit:10;} .st19{fill:#FFFFFF;stroke:#CCCCCC;stroke-width:4;stroke-linecap:round;stroke-linejoin:round;stroke-miterlimit:10;} .st20{fill:#59AFE1;stroke:#404040;stroke-width:4;stroke-linejoin:round;stroke-miterlimit:10;} .st21{fill:none;stroke:#CCCCCC;stroke-linecap:round;stroke-linejoin:round;stroke-miterlimit:10;}</style><path class="st12" d="M273.5 15.1v-8.3l-3.6 8.3h-1.3l-3.6-8.3v8.3h-1.5v-10.6h2l3.7 8.7 3.8-8.7h2v10.6h-1.5zm11.5-3.6c0 2.2-1.5 3.8-3.7 3.8s-3.7-1.6-3.7-3.8c0-2.2 1.5-3.8 3.7-3.8s3.7 1.6 3.7 3.8zm-1.4 0c0-1.7-1.1-2.6-2.2-2.6s-2.2.9-2.2 2.6c0 1.7 1 2.6 2.2 2.6s2.2-.9 2.2-2.6zm7.1 3.6h-1.4l-2.9-7.2h1.6l2.1 5.6 2.1-5.6h1.5l-3 7.2zm5.6-10.9c.6 0 1 .4 1 1s-.4 1-1 1-1-.5-1-1c0-.6.5-1 1-1zm-.7 10.9v-7.2h1.4v7.2h-1.4zm6 0h-1.4v-7.2h1.4v1c.5-.9 1.4-1.2 2.2-1.2 1.7 0 2.6 1.2 2.6 2.9v4.6h-1.4v-4.3c0-1-.4-1.8-1.7-1.8-1.1 0-1.7.9-1.7 2v4zm8.6.1c.1 1 .9 1.8 2 1.8 1.5 0 2.2-.8 2.2-2.3v-1c-.3.7-1.1 1.2-2.2 1.2-1.9 0-3.3-1.5-3.3-3.5 0-1.9 1.3-3.5 3.3-3.5 1.1 0 1.9.4 2.2 1.1v-1h1.4v6.7c0 1.8-.9 3.6-3.6 3.6-1.8 0-3.1-1.1-3.3-2.7l1.3-.4zm4.2-3.9c0-1.4-.8-2.3-2.1-2.3-1.2 0-2.1.9-2.1 2.3s.8 2.3 2.1 2.3 2.1-.9 2.1-2.3zm15.9 3.8v-4.7h-5.4v4.7h-1.5v-10.6h1.5v4.5h5.4v-4.5h1.5v10.6h-1.5zm4.9 0v-10.6h6.5v1.4h-5v3.3h4.5v1.4h-4.5v3.3h5v1.4h-6.5zm15.7-2.9h-4.7l-1.1 3h-1.6l4.2-10.6h1.7l4.2 10.6h-1.6l-1.1-3zm-4.2-1.4h3.7l-1.8-4.8-1.9 4.8zm9.2 4.3v-10.6h3.7c2.7 0 5.1 1.8 5.1 5.3s-2.4 5.3-5.1 5.3h-3.7zm3.7-1.3c2 0 3.6-1.3 3.6-4s-1.6-4-3.6-4h-2.2v8h2.2zm14.1-5.9h1.6v1.3h-1.6v3.8c0 .7.3 1 1 1 .2 0 .4 0 .6-.1v1.2c-.1 0-.5.1-1 .1-1.2 0-2-.8-2-2.1v-4h-1.4v-1.2h.4c.8 0 1.1-.5 1.1-1.1v-1.2h1.3v2.3zm10.9 3.6c0 2.2-1.5 3.8-3.7 3.8s-3.7-1.6-3.7-3.8c0-2.2 1.5-3.8 3.7-3.8s3.7 1.6 3.7 3.8zm-1.4 0c0-1.7-1.1-2.6-2.2-2.6s-2.2.9-2.2 2.6c0 1.7 1.1 2.6 2.2 2.6s2.2-.9 2.2-2.6zm10.2-.5l1.9-.3c.4-.1.6-.3.6-.5 0-.7-.5-1.3-1.6-1.3-1 0-1.5.6-1.6 1.5l-1.4-.3c.2-1.4 1.4-2.3 3-2.3 2.2 0 3 1.2 3 2.6v3.6c0 .6.1 1 .1 1.2h-1.4c0-.2-.1-.5-.1-1-.3.5-1 1.2-2.3 1.2-1.5 0-2.4-1-2.4-2.2 0-1.3.9-2 2.2-2.2zm2.5 1v-.3l-2.2.3c-.6.1-1 .4-1 1.1 0 .5.4 1 1.2 1 1.1.1 2-.5 2-2.1zm5.8 3.1h-1.4v-7.2h1.4v1c.5-.9 1.4-1.2 2.2-1.2 1.7 0 2.6 1.2 2.6 2.9v4.6h-1.5v-4.3c0-1-.4-1.8-1.7-1.8-1.1 0-1.7.9-1.7 2v4zm14-4.1l1.9-.3c.4-.1.6-.3.6-.5 0-.7-.5-1.3-1.6-1.3-1 0-1.5.6-1.6 1.5l-1.4-.3c.2-1.4 1.4-2.3 3-2.3 2.2 0 3 1.2 3 2.6v3.6c0 .6.1 1 .1 1.2h-1.4c0-.2-.1-.5-.1-1-.3.5-1 1.2-2.3 1.2-1.5 0-2.4-1-2.4-2.2 0-1.3.9-2 2.2-2.2zm2.5 1v-.3l-2.2.3c-.6.1-1 .4-1 1.1 0 .5.4 1 1.2 1 1 .1 2-.5 2-2.1zm8.3-2.7h-.6c-1.2 0-2 .6-2 2.2v3.6h-1.4v-7.2h1.4v1.3c.5-1.1 1.4-1.4 2.2-1.4h.5v1.5zm2.3 5.8v-10.8h1.4v4.7c.3-.6 1.2-1.2 2.4-1.2 2.2 0 3.3 1.7 3.3 3.8 0 2.1-1.2 3.8-3.4 3.8-1.1 0-1.9-.5-2.3-1.2v1h-1.4zm3.5-6.2c-1.2 0-2.1 1-2.1 2.5 0 1.6.9 2.6 2.1 2.6 1.3 0 2.1-1 2.1-2.6 0-1.5-.8-2.5-2.1-2.5zm6.8-4.7c.6 0 1 .4 1 1s-.4 1-1 1-1-.5-1-1c0-.6.4-1 1-1zm-.7 10.9v-7.2h1.4v7.2h-1.4zm6.4-7.2h1.6v1.3h-1.6v3.8c0 .7.3 1 1 1 .2 0 .4 0 .6-.1v1.2c-.1 0-.5.1-1 .1-1.2 0-2-.8-2-2.1v-4h-1.4v-1.2h.4c.8 0 1.1-.5 1.1-1.1v-1.2h1.3v2.3zm8.1 1.4h-.6c-1.2 0-2 .6-2 2.2v3.6h-1.4v-7.2h1.4v1.3c.5-1.1 1.4-1.4 2.2-1.4h.5v1.5zm4 1.7l1.9-.3c.4-.1.6-.3.6-.5 0-.7-.5-1.3-1.6-1.3-1 0-1.5.6-1.6 1.5l-1.4-.3c.2-1.4 1.4-2.3 3-2.3 2.2 0 3 1.2 3 2.6v3.6c0 .6.1 1 .1 1.2h-1.4c0-.2-.1-.5-.1-1-.3.5-1 1.2-2.3 1.2-1.5 0-2.4-1-2.4-2.2 0-1.3.9-2 2.2-2.2zm2.5 1v-.3l-2.2.3c-.6.1-1.1.4-1.1 1.1 0 .5.4 1 1.2 1 1.2.1 2.1-.5 2.1-2.1zm8.3-2.7h-.6c-1.2 0-2 .6-2 2.2v3.6h-1.4v-7.2h1.4v1.3c.5-1.1 1.4-1.4 2.2-1.4h.5v1.5zm2.8 8.8l1.8-3.8-3.1-6.4h1.6l2.2 5 2.2-5h1.5l-4.7 10.2h-1.5zm13.6-6.6c0 1.6 1 2.5 2.2 2.5 1.3 0 1.8-.9 2-1.5l1.2.5c-.3 1-1.4 2.2-3.3 2.2-2.1 0-3.6-1.6-3.6-3.8 0-2.2 1.6-3.8 3.6-3.8 1.9 0 2.9 1.2 3.2 2.3l-1.3.5c-.2-.7-.7-1.5-1.9-1.5-1 .1-2.1.9-2.1 2.6zm14.6 0c0 2.2-1.5 3.8-3.7 3.8s-3.7-1.6-3.7-3.8c0-2.2 1.5-3.8 3.7-3.8s3.7 1.6 3.7 3.8zm-1.4 0c0-1.7-1.1-2.6-2.2-2.6s-2.2.9-2.2 2.6c0 1.7 1.1 2.6 2.2 2.6s2.2-.9 2.2-2.6zm4 3.6v-7.2h1.3v1c.5-.8 1.4-1.2 2.2-1.2.9 0 1.8.4 2.2 1.4.6-1 1.5-1.4 2.4-1.4 1.3 0 2.5.9 2.5 2.7v4.7h-1.4v-4.5c0-.9-.5-1.6-1.5-1.6s-1.7.8-1.7 1.8v4.4h-1.4v-4.5c0-.9-.4-1.6-1.5-1.6-1 0-1.7.8-1.7 1.8v4.3h-1.4zm13.6 0v-7.2h1.3v1c.5-.8 1.4-1.2 2.2-1.2.9 0 1.8.4 2.2 1.4.6-1 1.5-1.4 2.4-1.4 1.3 0 2.5.9 2.5 2.7v4.7h-1.4v-4.5c0-.9-.5-1.6-1.5-1.6s-1.7.8-1.7 1.8v4.4h-1.4v-4.5c0-.9-.4-1.6-1.5-1.6-1 0-1.7.8-1.7 1.8v4.3h-1.4zm14.3-10.9c.6 0 1 .4 1 1s-.4 1-1 1-1-.5-1-1c0-.6.4-1 1-1zm-.7 10.9v-7.2h1.4v7.2h-1.4zm6.4-7.2h1.6v1.3h-1.6v3.8c0 .7.3 1 1 1 .2 0 .4 0 .6-.1v1.2c-.1 0-.5.1-1 .1-1.2 0-2-.8-2-2.1v-4h-1.4v-1.2h.4c.8 0 1.1-.5 1.1-1.1v-1.2h1.3v2.3z"/><path class="st14" d="M273.8 310.1h216.1m-158.4-41c0 22.6-18.4 41-41 41m41-41c0-22.6 18.4-41 41-41h214.9"/><circle class="st20" cx="415.9" cy="228.1" r="21"/><circle class="st15" cx="512.2" cy="228.1" r="21"/><circle class="st15" cx="608.5" cy="228.1" r="21"/><path class="st14" d="M120.5 310.1h170"/><circle class="st8" cx="141.5" cy="310.1" r="21"/><circle class="st8" cx="237.5" cy="310.1" r="21"/><circle class="st16" cx="414.9" cy="310.1" r="21"/><circle class="st16" cx="510.9" cy="310.1" r="21"/><path class="st5" d="M561.5 87.1h94v50h-94z"/><path class="st9" d="M594.2 118.1v-4.7h-5.4v4.7h-1.5v-10.6h1.5v4.5h5.4v-4.5h1.5v10.6h-1.5zm11.5-3.6c0 2.2-1.5 3.8-3.7 3.8s-3.7-1.6-3.7-3.8c0-2.2 1.5-3.8 3.7-3.8s3.7 1.6 3.7 3.8zm-1.4 0c0-1.7-1.1-2.6-2.2-2.6s-2.2.9-2.2 2.6c0 1.7 1.1 2.6 2.2 2.6s2.2-.9 2.2-2.6zm5.8-3.6h1.6v1.3h-1.6v3.8c0 .7.3 1 1 1 .2 0 .4 0 .6-.1v1.2c-.1 0-.5.1-1 .1-1.2 0-2-.8-2-2.1v-4h-1.4v-1.3h.4c.8 0 1.1-.5 1.1-1.1v-1.2h1.3v2.4zm7.8-3.5v1.3c-.1 0-.3-.1-.6-.1-.5 0-1.1.2-1.1 1.2v1.2h4.8v7.2h-1.4v-5.9h-3.4v5.9h-1.5v-5.9h-1.3v-1.3h1.3v-1.2c0-1.6 1.1-2.5 2.4-2.5.5-.1.8 0 .8.1zm2.3-.3c.6 0 1 .5 1 1 0 .6-.4 1-1 1s-1-.4-1-1c0-.5.5-1 1-1zm5.5 7.3l-2.6-3.5h1.7l1.8 2.5 1.7-2.5h1.7l-2.6 3.5c.4.6 2.2 3.1 2.7 3.7h-1.7l-1.9-2.7-1.8 2.7h-1.7l2.7-3.7z"/><path class="st11" d="M608.5 182.9v-23.5m10.8 14.8l-10.8 10.9-10.9-10.9"/><path class="st16" d="M462.2 399.9h100v50h-100z"/><path class="st9" d="M497.5 430.9v-8.3l-3.6 8.3h-1.3l-3.6-8.3v8.3h-1.5v-10.6h2l3.7 8.7 3.8-8.7h2v10.6h-1.5zm6.4-4.1l1.9-.3c.4-.1.6-.3.6-.5 0-.7-.5-1.3-1.6-1.3-1 0-1.5.6-1.6 1.5l-1.4-.3c.2-1.4 1.4-2.3 3-2.3 2.2 0 3 1.2 3 2.6v3.6c0 .6.1 1 .1 1.2h-1.4c0-.2-.1-.5-.1-1-.3.5-1 1.2-2.3 1.2-1.5 0-2.4-1-2.4-2.2 0-1.3 1-2 2.2-2.2zm2.5 1v-.3l-2.2.3c-.6.1-1.1.4-1.1 1.1 0 .5.4 1 1.2 1 1.2 0 2.1-.5 2.1-2.1zm5 .8c.1.8.7 1.3 1.7 1.3.8 0 1.2-.4 1.2-1 0-.4-.3-.8-.9-.9l-1.2-.3c-1.1-.2-1.8-1-1.8-2 0-1.2 1.2-2.3 2.6-2.3 2 0 2.6 1.3 2.7 1.9l-1.2.5c-.1-.4-.4-1.2-1.5-1.2-.7 0-1.2.5-1.2 1 0 .4.3.8.8.9l1.2.3c1.3.3 2 1.1 2 2.1s-.9 2.2-2.6 2.2c-2 0-2.8-1.3-2.9-2.1l1.1-.4zm8.8-4.9h1.6v1.3h-1.6v3.8c0 .7.3 1 1 1 .2 0 .4 0 .6-.1v1.2c-.1 0-.5.1-1 .1-1.2 0-2-.8-2-2.1v-4h-1.4v-1.3h.4c.8 0 1.1-.5 1.1-1.1v-1.2h1.3v2.4zm10.4 5.1c-.4 1.3-1.6 2.3-3.2 2.3-1.9 0-3.6-1.4-3.6-3.9 0-2.3 1.6-3.8 3.4-3.8 2.2 0 3.5 1.5 3.5 3.8v.4h-5.4c0 1.3 1 2.2 2.2 2.2 1.2 0 1.8-.6 2-1.5l1.1.5zm-1.4-2.3c0-1-.7-1.8-2-1.8-1.2 0-1.9.9-2 1.8h4zm8-1.4h-.6c-1.2 0-2 .6-2 2.2v3.6h-1.4v-7.2h1.4v1.3c.5-1.1 1.4-1.4 2.2-1.4h.5v1.5z"/><path class="st11" d="M512.2 353.4v23.5m-10.9-14.8l10.9-10.9 10.8 10.9"/><path class="st9" d="M402.5 185.6v-4.7h-5.4v4.7h-1.5v-10.6h1.5v4.5h5.4v-4.5h1.5v10.6h-1.5zm4.9 0v-10.6h6.5v1.4h-5v3.3h4.5v1.4h-4.5v3.3h5v1.4h-6.5zm15.7-3h-4.7l-1.1 3h-1.6l4.2-10.6h1.7l4.2 10.6h-1.6l-1.1-3zm-4.2-1.4h3.7l-1.8-4.8-1.9 4.8zm9.2 4.4v-10.6h3.7c2.7 0 5.1 1.8 5.1 5.3s-2.4 5.3-5.1 5.3h-3.7zm3.6-1.3c2 0 3.6-1.3 3.6-4s-1.6-4-3.6-4h-2.2v8h2.2z"/></svg>